<svg xmlns="http://www.w3.org/2000/svg" data-name="Layer 1" viewBox="0 0 100 125" x="0px" y="0px"><title>Artboard 29</title><path d="M50,19A19,19,0,0,0,31,38v9.76l-5.46,5.46A8.66,8.66,0,0,0,31.66,68H68.34a8.66,8.66,0,0,0,6.12-14.78L69,47.76V38A19,19,0,0,0,50,19ZM70.22,57.46A2.66,2.66,0,0,1,68.34,62H31.66a2.66,2.66,0,0,1-1.88-4.54L37,50.24V38a13,13,0,0,1,26,0V50.24Z"/><rect x="42" y="75" width="16" height="6"/><text x="0" y="115" fill="#000000" font-size="5px" font-weight="bold" font-family="'Helvetica Neue', Helvetica, Arial-Unicode, Arial, Sans-serif">Created by Gregor Cresnar</text><text x="0" y="120" fill="#000000" font-size="5px" font-weight="bold" font-family="'Helvetica Neue', Helvetica, Arial-Unicode, Arial, Sans-serif">from the Noun Project</text></svg>