<svg xmlns="http://www.w3.org/2000/svg" data-name="레이어 2" viewBox="0 0 100 125" x="0px" y="0px"><path d="M81.6,39.18,55.28,15.26a4,4,0,0,0-5.38,0L23.59,39.18a4,4,0,0,0-1.31,3V85.75a4,4,0,0,0,4,4H78.91a4,4,0,0,0,4-4V42.14A4,4,0,0,0,81.6,39.18ZM74.91,81.75H56.59V69.05a4,4,0,0,0-8,0v12.7H30.28V43.91L52.59,23.63,74.91,43.91Z"/><text x="0" y="115" fill="#000000" font-size="5px" font-weight="bold" font-family="'Helvetica Neue', Helvetica, Arial-Unicode, Arial, Sans-serif">Created by HyunWoo Jung</text><text x="0" y="120" fill="#000000" font-size="5px" font-weight="bold" font-family="'Helvetica Neue', Helvetica, Arial-Unicode, Arial, Sans-serif">from the Noun Project</text></svg>